<svg xmlns="http://www.w3.org/2000/svg" xmlns:xlink="http://www.w3.org/1999/xlink" viewBox="0 0 773.51 900.97"><defs><style>.cls-1,.cls-10,.cls-11,.cls-14{fill:none;}.cls-12,.cls-2,.cls-9{fill:#45ace8;}.cls-3{fill:#fff;}.cls-4{fill:#f8a900;}.cls-5{fill:#e5b890;}.cls-6{fill:#ad6b30;}.cls-7{fill:#d28d47;}.cls-8{fill:#0072b2;}.cls-10,.cls-11,.cls-9{stroke:#45ace8;}.cls-10,.cls-11,.cls-12,.cls-14,.cls-9{stroke-miterlimit:10;}.cls-10{stroke-linecap:round;}.cls-10,.cls-11,.cls-12,.cls-14{stroke-width:5px;}.cls-12,.cls-14{stroke:#fff;}.cls-13{clip-path:url(#clip-path);}</style><clipPath id="clip-path"><polyline id="SVGID" class="cls-1" points="42.01 684.48 42.01 420.48 335.01 420.48 335.01 684.48"/></clipPath></defs><title>Asset 11</title><g id="Layer_2" data-name="Layer 2"><g id="Layer_1-2" data-name="Layer 1"><path class="cls-2" d="M389,19.31l376,214.3a10,10,0,0,1,5,8.68V676.68a10,10,0,0,1-5,8.68L390,899.65a10,10,0,0,1-9.9,0l-375-213.3A10,10,0,0,1,0,677.67V242.28a10,10,0,0,1,5-8.68l374-214.28A10,10,0,0,1,389,19.31Z"/><path class="cls-3" d="M389,1.31l376,214.3a10,10,0,0,1,5,8.68V658.68a10,10,0,0,1-5,8.68L390,881.65a10,10,0,0,1-9.9,0l-375-213.3A10,10,0,0,1,0,659.67V224.28a10,10,0,0,1,5-8.68l374-214.28A10,10,0,0,1,389,1.31Z"/><polygon class="cls-3" points="347.92 528.75 405.82 685.41 385.38 675.19 327.49 523.64 347.92 528.75"/><polygon class="cls-2" points="420.67 676.89 354.26 494.69 327.01 510.02 327.01 538.97 347.44 528.75 405.34 685.41 420.67 676.89"/><polygon class="cls-2" points="266.19 528.75 208.29 685.41 228.72 675.19 286.62 523.64 266.19 528.75"/><polygon class="cls-3" points="193.36 676.89 259.77 494.69 287.01 510.02 287.01 538.97 266.58 528.75 208.68 685.41 193.36 676.89"/><polygon class="cls-2" points="225.28 763.74 272.95 540.67 307.01 521.94 307.01 550.89 286.58 562.81 245.71 755.23 225.28 763.74"/><polygon class="cls-4" points="307.05 521.94 286.62 510.02 254.26 528.75 273 540.67 307.05 521.94"/><polygon class="cls-3" points="254.26 528.75 206.59 753.52 225.32 763.74 273 540.67 254.26 528.75"/><polygon class="cls-3" points="388.75 763.74 341.07 540.67 307.01 521.94 307.01 550.89 327.44 562.81 368.31 755.23 388.75 763.74"/><polygon class="cls-4" points="307.05 521.98 327.55 510.02 360.01 528.81 341.22 540.77 307.05 521.98"/><polygon class="cls-2" points="359.84 528.75 407.52 753.52 388.79 763.74 341.11 540.67 359.84 528.75"/><polygon class="cls-5" points="487.01 450.2 487.01 348.34 414.01 307.6 414.01 409.46 487.01 450.2"/><polygon class="cls-5" points="460.01 452.12 460.01 366.98 397.01 331.23 397.01 416.36 460.01 452.12"/><polygon class="cls-6" points="460.01 367.21 482.01 355.36 482.01 439.98 460.01 451.82 460.01 367.21"/><polygon class="cls-7" points="397.3 331.22 419.44 319.3 482.44 355.06 460.31 366.98 397.3 331.22"/><polygon class="cls-2" points="639.01 263.48 658.01 253.47 658.01 402.02 639.01 412.38 639.01 263.48"/><polygon class="cls-2" points="519.9 196.7 538.64 186.48 658.01 253.48 639.01 263.48 519.9 196.7"/><polygon class="cls-2" points="575.01 302.48 624.01 277.48 624.01 404.05 575.01 430.48 575.01 302.48"/><polygon class="cls-2" points="472.23 242.68 520.01 217.48 624.01 277.48 575.01 302.48 472.23 242.68"/><polygon class="cls-2" points="520.01 196.7 520.01 217.48 624.01 277.48 639.01 263.48 520.01 196.7"/><polygon class="cls-3" points="488.01 350.23 510.01 338.38 510.01 438.23 488.01 450.07 488.01 350.23"/><polygon class="cls-8" points="414.33 307.38 436.47 295.46 509.69 338.03 487.55 349.95 414.33 307.38"/><polygon class="cls-2" points="575.01 302.48 510.01 337.48 510.01 438.81 575.01 430.48 575.01 302.48"/><polygon class="cls-2" points="472.23 242.68 436.47 295.46 510.01 337.48 575.01 302.48 472.23 242.68"/><polygon class="cls-2" points="211.01 629.43 211.01 472.55 379.83 375.35 403.7 388.99 506.01 329.31 506.01 458.91 211.01 629.43"/><polygon class="cls-3" points="212.01 628.91 212.01 472.66 195.03 443.78 105.01 392.83 105.01 567.77 212.01 628.91"/><polygon class="cls-3" points="211.69 472.56 194.67 443.61 359.84 348.25 380.27 375.5 211.69 472.56"/><polygon class="cls-2" points="104.42 392.52 194.67 443.61 359.84 348.25 271.29 297.17 104.42 392.52"/><polygon class="cls-3" points="404.11 389.12 385.38 360.17 485.85 302.27 506.28 329.52 404.11 389.12"/><polygon class="cls-3" points="359.84 348.25 385.38 360.17 404.11 389.12 380.27 375.5 359.84 348.25"/><polygon class="cls-2" points="295.13 309.09 385.38 360.17 485.85 302.27 395.6 251.19 295.13 309.09"/><polygon class="cls-3" points="271.29 297.17 295.13 309.09 385.38 360.17 359.84 348.25 271.29 297.17"/><polygon class="cls-3" points="163.86 611.94 191.01 594.97 191.01 467.7 170.65 479.58 163.01 498.81 163.86 611.94"/><polygon class="cls-4" points="164.01 612.18 164.01 499.81 101.01 464.05 101.01 576.43 164.01 612.18"/><polygon class="cls-4" points="164.01 499.8 170.83 479.37 109.53 445.31 101.01 464.04 164.01 499.8"/><polygon class="cls-2" points="191.26 467.45 131.66 433.39 109.53 445.31 170.83 479.37 191.26 467.45"/><polygon class="cls-2" points="246.01 586.51 246.01 484.51 359.91 419.91 382.01 428.41 382.01 508.31 246.01 586.51"/><polygon class="cls-3" points="246.01 484.48 237.01 479.37 237.01 583.24 246.01 586.65 246.01 484.48"/><polygon class="cls-3" points="237.24 479.37 351.33 414.66 359.84 419.77 245.75 484.48 237.24 479.37"/><polygon class="cls-3" points="351.33 414.66 373.46 423.18 381.98 428.28 359.84 419.77 351.33 414.66"/><polygon class="cls-2" points="444.58 387.21 496.01 358.07 496.01 442.07 436.01 476.36 436.01 404.93 444.58 387.21"/><polygon class="cls-3" points="496.01 442.48 493.01 440.48 436.01 472.56 436.01 475.96 496.01 442.48"/><polygon class="cls-3" points="496.01 442.48 493.01 440.48 493.01 360.39 496.01 358.47 496.01 442.48"/><polygon class="cls-2" points="292.01 297.85 299.01 301.99 299.01 328.21 292.01 323.98 292.01 297.85"/><polygon class="cls-3" points="299.01 302.51 304.01 299.18 304.01 324.18 299.01 327.51 299.01 302.51"/><polygon class="cls-2" points="162.01 372.78 169.01 376.91 169.01 403.13 162.01 398.91 162.01 372.78"/><polygon class="cls-3" points="169.01 377.43 174.01 374.1 174.01 399.1 169.01 402.43 169.01 377.43"/><polygon class="cls-2" points="159.01 397.88 140.01 387.51 140.01 363.33 159.01 373.69 159.01 397.88"/><polygon class="cls-3" points="159.01 397.57 324.01 302.31 324.01 278.5 159.01 373.75 159.01 397.57"/><polygon class="cls-2" points="140.18 363.58 307.05 268.22 324.08 278.44 158.91 373.79 140.18 363.58"/><polygon class="cls-2" points="394.01 327.75 355.01 305.7 355.01 293.83 394.01 315.88 394.01 327.75"/><polygon class="cls-3" points="394.01 327.99 425.01 310.77 425.01 296.99 394.01 315.94 394.01 327.99"/><polygon class="cls-2" points="354.73 293.76 383.68 276.73 424.55 297.17 393.9 315.9 354.73 293.76"/><polygon class="cls-3" points="324.01 278.51 380.01 308.17 380.01 320.05 324.01 302.26 324.01 278.51"/><polygon class="cls-2" points="364.49 299.28 307.05 268.22 324.08 278.44 378.57 307.38 364.49 299.28"/><polygon class="cls-2" points="261.01 462.13 234.01 446.94 234.01 414.88 261.01 430.06 261.01 462.13"/><polygon class="cls-2" points="261.01 429.95 298.73 407.67 309.01 414.52 309.01 428.24 302.15 438.52 261.01 462.52 261.01 429.95"/><polygon class="cls-3" points="234.92 415.27 273 392.52 298.54 407.85 261.08 429.99 234.92 415.27"/><polygon class="cls-3" points="256.01 455.76 237.01 445.08 237.01 422.51 256.01 433.2 256.01 455.76"/><polygon class="cls-9" points="307.51 698.5 307.51 786.94 384.51 830.4 384.51 745.01 307.51 698.5"/><polygon class="cls-2" points="441.01 796.62 441.01 541.38 495.01 511 495.01 763.83 441.01 796.62"/><line class="cls-10" x1="381.01" y1="647.48" x2="771.01" y2="421.62"/><polygon class="cls-2" points="564.01 728.31 564.01 620.41 618.01 590.03 618.01 695.52 564.01 728.31"/><polygon class="cls-2" points="672.01 663.75 672.01 501.17 726.01 470.79 726.01 630.96 672.01 663.75"/><polyline class="cls-11" points="467.83 632.35 520.51 664.98 538.51 493.98 635.38 598.65 641.67 498.33 726.51 545.98"/><path class="cls-3" d="M363.15,750.1a1.63,1.63,0,0,1,.49,1.46c-.16.48-.54.37-1,.1-.67-.41-1.34-.8-2.07-1.23l-.12,3.63-3.81-2.26c0,.25,0,.45-.05.66-.08,2.71-.18,5.41-.24,8.11-.07,3-1.16,4.59-3.32,5-2.51.44-5,1-7.49,1.45l-.44.11c.17.23.29.42.43.6,2.43,3.32,4.84,6.63,7.25,9.89a12.82,12.82,0,0,1,2.8,8.12c-.09,2.59-.16,5.18-.24,7.75l0,.64,3.69,2-.11,3.41,1.63.9a5.9,5.9,0,0,1,.69.4,1.41,1.41,0,0,1,.61,1.14c0,.42-.25.63-.62.51a2.13,2.13,0,0,1-.43-.21L325,782.62l-.28-.15a1.61,1.61,0,0,1-.81-1.36c0-.48.33-.65.82-.39s1.17.63,1.75.95l.55.31,0-3.52,3.88,2.15c0-.24,0-.43,0-.63,0-2.64.08-5.28.08-8,0-2.95,1.08-4.6,3.27-5,2.54-.45,5-1,7.55-1.46l.45-.11-.43-.59q-3.7-5.07-7.48-10.19a13.94,13.94,0,0,1-3.07-8.64c0-2.8.06-5.62.09-8.44v-.73l-4-2.38,0-3.81-1.78-1.06-.58-.34a1.84,1.84,0,0,1-.87-1.22c-.13-.67.15-.87.57-.88Zm-30.62,31.38,21.27,11.77a1.2,1.2,0,0,0,0-.24c.09-2.85.19-5.7.25-8.58a9.08,9.08,0,0,0-1.93-5.5q-4.07-5.56-8.21-11.19c-.21-.29-.36-.37-.57-.33-.83.19-1.68.34-2.52.51l-5.93,1.15c-1.43.28-2.28,1.3-2.32,3.25-.07,3-.09,5.95-.12,8.91A1.41,1.41,0,0,0,332.53,781.48ZM355,750.88l-22-13c0,.12,0,.22,0,.32,0,3.06-.08,6.1-.11,9.14a10,10,0,0,0,2.11,6c2.83,3.89,5.65,7.72,8.44,11.54.2.28.35.37.56.33.82-.18,1.64-.33,2.46-.49l6-1.16c1.44-.28,2.29-1.32,2.36-3.31.12-3,.19-6,.28-9C355.07,751.1,355.05,751,355,750.88Zm-26-19.19v1.84L359,751.28l.05-1.77Zm-.46,51.13,28.85,15.88.06-1.63-28.89-15.94Z"/><path class="cls-3" d="M352.53,785.15c0,.38,0,.78,0,1.16s-.33.66-.74.44a1.45,1.45,0,0,1-.74-1.22,7.78,7.78,0,0,1,0-1.37A4.17,4.17,0,0,0,350,781c-1-1.23-1.88-2.52-2.81-3.8a2.34,2.34,0,0,1-.46-.9,1,1,0,0,1,.24-.78c.24-.19.6.05.9.45.53.7,1.05,1.41,1.57,2.12s1.08,1.49,1.64,2.21a6.45,6.45,0,0,1,1.52,4.41c0,.13,0,.27,0,.4Z"/><path class="cls-3" d="M334.5,747.7c0-.59,0-1,0-1.42s.34-.73.76-.51a1.74,1.74,0,0,1,.81,1.38,16.76,16.76,0,0,1,0,1.74,4,4,0,0,0,.93,2.68c1,1.39,2.05,2.8,3.07,4.2a6.18,6.18,0,0,1,.36.53c.32.53.36,1,.12,1.28s-.68.11-1-.34-.86-1.16-1.29-1.75c-.61-.83-1.19-1.69-1.83-2.49A7.27,7.27,0,0,1,334.5,747.7Z"/><polyline class="cls-11" points="769.9 607.07 383.93 830.68 307.51 786.28 307.51 698.97 384.09 744.09 770.06 520.47"/><polygon class="cls-12" points="2.51 518.43 384.51 741.73 384.51 590.53 3.51 368.24 2.51 518.43"/><g class="cls-13"><path class="cls-3" d="M113.64,509.31c.19,6.71-.64,13.22-3.64,19.3-5.62,11.37-16.65,14.81-28.06,9.07-13-6.54-21.43-17.4-28-29.87-7.54-14.4-11.9-29.68-9.94-46.08a41.9,41.9,0,0,1,4.53-14.64c5.24-9.7,15.89-12.17,26.66-7,9.56,4.56,16.62,11.86,22.44,20.47C107.63,475.26,113.47,491.37,113.64,509.31Zm-66-48.93c-.38,2.07-.65,3.26-.79,4.45a34,34,0,0,0-.21,3.63c-.13,17.2,5.39,32.61,15,46.67,5.56,8.15,12.34,15,21.62,19A18.63,18.63,0,0,0,107,525.31c4.39-8.86,4.36-18.2,2.8-27.83h-5.31c-.53,3.41-1.27,6.71-4.91,7.67s-7-.92-8.95-3.71c-2.74-3.89-5.62-8.13-6.68-12.63-1.2-5.1-4.79-6.11-8.34-8.15-2.19,8.76-7.54,10.28-13.79,4.2a23.54,23.54,0,0,1-7.17-13.48C54,466.64,50.51,464.21,47.59,460.38Zm35.29,20.08c3.43-7.6,8.55-8.39,14.12-2.59a11.46,11.46,0,0,1,2.07,2.56c2.05,3.94,4,7.95,6,12.05h3.63a9.44,9.44,0,0,0-.1-1.44A86.37,86.37,0,0,0,96.14,463.2c-5.74-8.24-12.51-15.42-22-19.39-10.8-4.5-21.61.5-25.1,11.57a2.75,2.75,0,0,0,0,2.08c1.54,2,3.25,3.8,5,5.77,3.18-7.22,7.31-8.15,13.06-3.05,4.18,3.69,6.42,8.56,7.91,13.85a5,5,0,0,0,1.49,2.64C78.44,478.05,80.6,479.13,82.88,480.46Zm-10.5-3.84c-.35-4.95-2.16-9.63-6.32-12.95-1.43-1.13-4.16-2.09-5.53-1.46-1.56.72-3,3.22-3.21,5.08a16,16,0,0,0,5.41,13.91c1.57,1.41,4.38,2.53,6.32,2.16C72,482.8,72.4,479.72,72.38,476.62Zm29.79,17.86c-.62-5.21-3.83-11.78-7.56-14.47-3.89-2.82-7.83-1.14-8.28,3.62a18,18,0,0,0,5.38,14.65c1.81,1.89,4.39,3.49,6.74,1.92C100.19,499,101,496.44,102.17,494.48Z"/><path class="cls-3" d="M187.64,552.33a35.37,35.37,0,0,1-4.32,20.1c-5.92,10.39-16.94,13.17-28.27,7.34-11.94-6.14-20-16.07-26.39-27.47-6.64-11.83-10.9-24.47-11.53-38.16-.35-7.65.12-15.2,3.47-22.26a26.5,26.5,0,0,1,2.91-4.79c2.54-3.28,5.21-6.45,7.86-9.63,2.51-3,3.14-2.91,5.17.35.56.9,1.62,2,2.53,2.08,10.07.89,17.77,6.29,24.43,13.19,13.76,14.24,21.27,31.56,24.06,51,0,.33.07.66.08,1Zm-60.78-62.22c-1.12,1.62-1.83,2.53-2.4,3.51A33.49,33.49,0,0,0,120.13,510c-.38,17.94,5.49,33.91,15.75,48.38,5.57,7.85,12.28,14.45,21.43,18.07,10.05,4,18.95.68,23.86-9,3.28-6.45,4.1-13.46,3.62-20.57a81.16,81.16,0,0,0-11.2-35.88c-5.81-9.92-12.94-18.72-23.6-23.84-3-1.45-6.46-2.08-9.72-3.1.93,5.37,2.12,9.85,2.39,14.39.31,5.35-2.7,6.89-7.42,4.35S127.78,496.24,126.86,490.11Zm8.45-9.65c-6.81,6.55-6.87,14.17-.78,17.68,1.2.69,3.35,1.3,4.12.72s1.32-2.86,1-4.15C138.48,490.1,136.91,485.58,135.31,480.46Z"/><path class="cls-3" d="M335.53,641a36.36,36.36,0,0,1-3.51,16.8c-5.47,11.44-16.77,14.78-28.07,8.89-14-7.28-22.63-19.12-29.15-32.84-6.37-13.4-9.67-27.48-7.82-42.4,1-8.24,3.74-15.81,11.36-20.28,7-4.1,14.12-2.63,20.86.91,10.82,5.69,18.33,14.76,24.31,25.12C331,610.07,335.51,623.88,335.53,641Zm-66.27-42.8c.78,20.94,7.06,37,18.37,51.19,5,6.21,10.9,11.27,18.41,14.19,9.95,3.86,19.34-.17,23.57-10a40.53,40.53,0,0,0,3-18.89,80,80,0,0,0-13.43-39.38c-5.82-8.81-12.86-16.4-23-20.44-9.95-4-19.63-.18-23.55,9.81C270.66,589.72,270,595.31,269.26,598.16Z"/><path class="cls-3" d="M261,593.84c.57,7.73-.33,14.44-3.62,20.65-5.46,10.29-15.13,13.86-26,9.54-10.42-4.16-18-11.77-24.3-20.71A90,90,0,0,1,191.22,564c-1.27-8.75-1.3-17.54,1.69-26.13,4.48-12.88,16-18.11,28.51-12.75,12.11,5.17,20.16,14.71,26.85,25.54A89.68,89.68,0,0,1,261,586.38,52,52,0,0,1,261,593.84Zm-1.62-.41-.94-.25c0-14.73-6.14-32.72-15.53-45.55-6.09-8.32-13.15-15.47-23.16-18.94-9.15-3.16-17.95,0-22,8.72a40.56,40.56,0,0,0-4,15.14c-.86,19.41,5.93,36.46,17.67,51.66,5.55,7.18,12.24,13,21,15.9,9.15,3,18-.34,21.86-9.11C256.82,605.48,257.79,599.31,259.42,593.43Z"/><path class="cls-3" d="M90.6,510.83c2.24,1.42,2.72,2.9,2,5-2.51,7.08-7.4,9.19-13.85,5.32-3.33-2-6.12-4.93-9-7.61-.79-.73-1-2-1.5-3.09l.6-.71A12.28,12.28,0,0,1,71.22,511c2.12,1.73,4,3.8,6.26,5.34,5.5,3.75,9.34,2.57,12.09-3.45C89.83,512.28,90.14,511.73,90.6,510.83Z"/><path class="cls-3" d="M168.09,569.62c-.54-1.39-1.44-2.74-1.57-4.17a25,25,0,0,0-17.6-22.13c-3.81-1.21-7,1.32-7.62,5.9-.15,1.22-.42,2.43-.63,3.64l-.95.18c-.57-1.07-1.77-2.25-1.6-3.18.56-3.05,1.07-6.35,2.63-8.92,1.69-2.77,4.92-2.87,8-1.78,11.42,4,20.25,15.59,20.92,27.63a11.22,11.22,0,0,1-.48,2.64Z"/><path class="cls-3" d="M142.52,513.45c3.4,1.53,2.93,4,2,6.41s-2.47,3.72-5.09,2.95c-2.3-.68-3.7-2.09-3.19-4.78C141.23,518.41,141.23,518.41,142.52,513.45Z"/><path class="cls-3" d="M168.14,539.1c-5.41-1.73-9.51-9.91-7.91-15.4,3,.47,1.89,3.24,2.71,4.88a38.7,38.7,0,0,0,2.65,5.17C166.72,535.34,169,536.26,168.14,539.1Z"/><path class="cls-3" d="M282.29,617c2.55,1.42,5.12,2.8,7.64,4.27,8.37,4.88,16.55,10.13,25.15,14.56,4.56,2.35,4.65,5.89,2.94,11a7.6,7.6,0,0,1-10.11,5c-11.19-4.13-20.19-10.86-24.18-22.66-1.26-3.72-1.76-7.71-2.6-11.57Zm2.93,5.84a8.93,8.93,0,0,0-.14,1.5c1.75,10.22,12.56,21.29,22.62,23.17a6.56,6.56,0,0,0,7.7-5.06,2.94,2.94,0,0,0-.82-2.49C305,634.28,295.26,628.69,285.22,622.87Z"/><path class="cls-3" d="M324.41,618.35c0,3.48-3.76,9.08-7,10a3.22,3.22,0,0,1-2.87-1.06c-2.76-6.1-5.53-12.22-7.7-18.53-.5-1.45.84-4.41,2.24-5.4,1.91-1.36,4,.15,5.45,2,.37.49.75,1.16,1.28,1.35C321.46,608.75,324.4,612.64,324.41,618.35Zm-9.36,5.59,1.2,0a53.16,53.16,0,0,0,4.4-5.37c1.63-2.58-.49-7.94-2.65-7.16-2.76,1-3.26-.65-4.41-2.19-.57-.78-1.77-1.09-2.68-1.62-.39,1.12-1.37,2.44-1.06,3.31C311.4,615.36,313.28,619.63,315.05,623.94Z"/><path class="cls-3" d="M297.94,603.24c-.08,3.15-4.07,8.93-7.06,9.69a3.53,3.53,0,0,1-3.1-1.3,178.94,178.94,0,0,1-7.54-17.93c-.52-1.54.81-4.55,2.24-5.71,1.93-1.56,3.95.19,5.41,1.93.4.48.8,1.1,1.33,1.31C294.83,593.38,298.08,597.81,297.94,603.24Zm-9.06,6.29c2.29-2.73,4.07-4.43,5.31-6.45,1.48-2.41-.62-7.74-2.52-7.06-2.84,1-3.52-.56-4.68-2.29-.49-.73-1.58-1.06-2.4-1.57-.48,1-1.6,2.15-1.35,2.86C284.83,599.59,286.71,604.06,288.88,609.53Z"/><path class="cls-3" d="M225.51,594.65l4.07-2,4.28,6.57c.3,0,.56.15.7.06,3.34-2.16,5.19-.68,6.52,2.51,1,2.42,2.22,4.76,3.34,7.13l-1.48.8L238.37,603c-5.9,4.21-6.09-2.21-8.62-4.92-6.37,4.59-5.74-3.29-9-5-.58.27-1.34.59-2.07,1-2.17,1.16-3-.19-3.31-1.94-.41-2.76,2.32-2.7,3.8-3.56a3.11,3.11,0,0,1,2.84.79A45.14,45.14,0,0,1,225.51,594.65Z"/><path class="cls-3" d="M240.72,574.09c1.54,3.79,5.88,5.62,5.63,10.6-1-.51-1.7-.67-2.07-1.12-2.65-3.24-5.31-6.48-7.8-9.83-1.94-2.61-1.37-3.78,1.8-4.24,1.7-.25,3.4-.47,5.09-.7,1.89-.25,3.07.74,2.91,2.47-.07.78-1.4,1.61-2.33,2.08A14.07,14.07,0,0,1,240.72,574.09Z"/><path class="cls-3" d="M210.18,547.73c4.1,4.56,8.59,8.78,11.11,15.08-3.73,0-6.76.16-9.77-.07-1.64-.12-2.08-1.57-1.67-4.35l5.07-.25C213.61,554.36,209.11,552.42,210.18,547.73Z"/></g><line class="cls-14" x1="726.51" y1="545.98" x2="672.51" y2="515.98"/><line class="cls-14" x1="494.51" y1="648.98" x2="467.51" y2="631.98"/></g></g></svg>